<svg width="37" height="50" viewBox="0 0 37 50" fill="none" xmlns="http://www.w3.org/2000/svg">
<path fill-rule="evenodd" clip-rule="evenodd" d="M6.86447 0.0195274L30.0382 0L30.6711 0.244093C31.0216 0.380785 31.4889 0.634642 31.7032 0.810389C31.9271 0.986136 32.2679 1.3181 32.4626 1.56219C32.6574 1.80629 32.9105 2.24566 33.0274 2.53857C33.1832 2.95841 33.2416 3.33919 33.3 5.46768H3.7L3.72921 4.26675C3.75842 3.33919 3.81684 2.95841 3.97263 2.53857C4.08947 2.24566 4.34263 1.80629 4.53737 1.56219C4.73211 1.3181 5.07289 0.986136 5.29684 0.810389C5.51105 0.634642 5.95895 0.390549 6.28026 0.253857L6.86447 0.0195274ZM18.4805 14.2648C35.6368 14.255 35.8316 14.2648 36.2211 14.4503C36.4807 14.5805 36.6754 14.7758 36.8053 15.0361C37 15.4267 37 15.6219 37 25.9715C37 36.321 37 36.5261 36.8053 36.9069C36.6754 37.1672 36.4807 37.3625 36.2211 37.4927C35.8316 37.688 35.6368 37.688 1.11974 37.688L0.74 37.4731C0.525789 37.3462 0.292105 37.0924 0.185 36.8873C0.009737 36.5358 0 36.1258 0 25.9715C0 15.6219 0 15.4267 0.194737 15.0361C0.321316 14.792 0.52579 14.5772 0.759474 14.4601C1.11 14.2746 1.44105 14.2648 18.4805 14.2648ZM18.6266 19.9375C18.5 20.1718 17.7892 22.7885 17.0395 25.7567C16.2897 28.7249 15.6763 31.2634 15.6763 31.3904C15.6763 31.527 15.7639 31.8102 15.8711 32.025C16.0009 32.2854 16.1956 32.4806 16.4553 32.6108C16.6695 32.7182 16.9616 32.8061 17.1174 32.8061C17.2634 32.8061 17.5555 32.728 17.7697 32.6206C18.0424 32.4937 18.2274 32.3081 18.3734 32.0152C18.5 31.7809 19.2108 29.1642 19.9605 26.1961C20.7103 23.2279 21.3237 20.6893 21.3237 20.5526C21.3237 20.4257 21.2361 20.1328 21.1289 19.918C20.9991 19.6576 20.8044 19.4623 20.5447 19.3322C20.3305 19.2248 20.0384 19.1369 19.8924 19.1369C19.7366 19.1369 19.4445 19.2248 19.2303 19.3322C18.9674 19.4591 18.7726 19.6544 18.6266 19.9375ZM9.65895 23.3743C8.73395 24.2921 7.90631 25.1709 7.82842 25.3173C7.75053 25.4638 7.69211 25.7567 7.69211 25.9715C7.69211 26.1863 7.75053 26.489 7.82842 26.6354C7.90631 26.7819 8.73395 27.6606 9.65895 28.5784C10.5839 29.4962 11.4408 30.2968 11.5674 30.3554C11.6842 30.414 11.9568 30.4628 12.1711 30.4628C12.3853 30.4628 12.6968 30.4042 12.8526 30.3163C13.0182 30.2382 13.2324 30.0527 13.3395 29.9063C13.4563 29.7598 13.5634 29.506 13.5926 29.34C13.6218 29.1838 13.6218 28.9006 13.5829 28.7053C13.5245 28.4515 13.2324 28.0902 12.3268 27.1724L11.1487 25.9715C13.2324 23.8625 13.5245 23.5013 13.5829 23.2376C13.6218 23.0521 13.6218 22.769 13.5926 22.603C13.5634 22.4468 13.4563 22.1929 13.3395 22.0465C13.2324 21.9 13.0182 21.7145 12.8526 21.6266C12.6968 21.5485 12.3755 21.4899 12.1516 21.4899C11.9179 21.4899 11.6453 21.5388 11.5382 21.5973C11.4311 21.6559 10.5839 22.4566 9.65895 23.3743ZM23.6216 22.0953C23.5437 22.2125 23.4463 22.4468 23.4171 22.603C23.3782 22.769 23.3782 23.0521 23.4171 23.2376C23.4658 23.5013 23.7579 23.8625 24.6634 24.7803L25.8513 25.9715C23.7482 28.1 23.4658 28.4417 23.4171 28.7053C23.3782 28.9006 23.3782 29.1838 23.4074 29.34C23.4366 29.506 23.5534 29.7598 23.6605 29.9063C23.7676 30.0527 23.9916 30.2382 24.1474 30.3163C24.3032 30.4042 24.6147 30.4628 24.8289 30.4628C25.0432 30.4628 25.3353 30.4042 25.4911 30.3261C25.6371 30.248 26.5037 29.4278 27.4189 28.5003C28.3439 27.563 29.1424 26.7038 29.2008 26.5866C29.2592 26.4694 29.3079 26.1863 29.3079 25.9715C29.3079 25.7567 29.2592 25.4833 29.2008 25.3661C29.1424 25.249 28.3439 24.3898 27.4189 23.4525C26.5037 22.5249 25.6371 21.7047 25.4911 21.6266C25.3353 21.5485 25.0334 21.4802 24.8095 21.4802C24.5661 21.4899 24.2642 21.5681 24.0792 21.6755C23.9039 21.7829 23.6995 21.9781 23.6216 22.0953ZM3.69026 40.6171H33.3L33.2708 43.7707C33.2513 46.7682 33.2416 46.944 33.0274 47.4517C32.9105 47.7543 32.6574 48.1937 32.4626 48.428C32.2679 48.6721 31.9271 49.0139 31.7032 49.1896C31.4889 49.3556 31.0216 49.6095 30.0382 50H6.96184L6.32895 49.7461C5.97842 49.6095 5.51105 49.3556 5.29684 49.1896C5.07289 49.0139 4.73211 48.6721 4.53737 48.428C4.34263 48.1937 4.08947 47.7543 3.97263 47.4517C3.75842 46.944 3.74868 46.7584 3.71947 43.7707L3.69026 40.6171ZM14.8292 43.8391C14.6734 44.0637 14.6053 44.3273 14.6053 44.6202C14.6053 44.9131 14.6734 45.1767 14.8292 45.4013C14.9461 45.5868 15.1992 45.8211 15.3939 45.909C15.6861 46.0652 16.0561 46.0848 18.5 46.0848C20.9537 46.0848 21.3139 46.0652 21.6158 45.909C21.8008 45.8211 22.0539 45.5868 22.1805 45.4013C22.3266 45.1767 22.4045 44.9131 22.4045 44.6202C22.4045 44.3273 22.3266 44.0637 22.1805 43.8391C22.0539 43.6536 21.8008 43.4193 21.6158 43.3216C21.3139 43.1752 20.9537 43.1556 18.5 43.1556C16.0561 43.1556 15.6861 43.1752 15.3939 43.3216C15.1992 43.4193 14.9461 43.6536 14.8292 43.8391ZM3.7 8.3968H33.3V11.3259H3.7V8.3968Z" fill="black"/>
</svg>
