<svg width="71" height="50" viewBox="0 0 71 50" fill="none" xmlns="http://www.w3.org/2000/svg">
<path d="M41.0248 0.460894C40.4517 0.768157 40.0464 1.10335 39.7528 1.53631C39.4453 1.99721 37.4465 7.82123 32.093 23.8827C25.2439 44.3715 24.8525 45.6425 24.9084 46.3687C24.9504 46.7877 25.0901 47.3464 25.2159 47.5978C25.3417 47.8352 25.7052 48.3101 26.0267 48.6313C26.3621 48.9525 27.0191 49.3994 27.4943 49.6089C27.9835 49.8184 28.6125 50 28.8921 50C29.2136 50 29.7028 49.8464 30.1222 49.6089C30.5275 49.3715 30.9608 48.9804 31.1565 48.6592C31.3522 48.3659 34.7907 38.2542 38.8163 26.1871C44.5892 8.85475 46.1267 4.12011 46.1267 3.56145C46.1267 3.11453 46.0009 2.61173 45.7913 2.1648C45.6096 1.78771 45.2461 1.27095 44.9945 1.01955C44.7289 0.782123 44.2257 0.446927 43.8483 0.293296C43.4849 0.125698 42.8979 0 42.5205 0C42.0452 0 41.6259 0.139665 41.0248 0.460894ZM20.2678 10.0978C20.0022 10.1955 19.527 10.433 19.2195 10.6145C18.912 10.8101 14.8165 13.4218 10.1339 16.4385C5.45134 19.4553 1.35585 22.1508 1.04833 22.4441C0.69889 22.7654 0.391378 23.2402 0.237623 23.6732C0.111822 24.0642 0 24.6508 0 25C0 25.3631 0.139778 25.9218 0.335467 26.3268C0.517178 26.7179 0.838668 27.1927 1.06231 27.4022C1.28596 27.5978 5.49327 30.3631 10.4135 33.5335C15.3336 36.7039 19.7087 39.4413 20.128 39.6229C20.6172 39.8184 21.1764 39.9441 21.6656 39.9441C22.2247 39.9441 22.5881 39.8464 22.9935 39.6089C23.301 39.4274 23.6784 39.0922 23.8461 38.8687C24.0139 38.6592 24.2794 38.1983 24.4611 37.8492C24.7127 37.3743 24.7966 36.9832 24.7966 36.3128C24.7966 35.7076 24.7081 35.2421 24.531 34.9162C24.3913 34.6508 24.1816 34.2737 24.0418 34.0782C23.916 33.8827 20.743 31.7458 16.997 29.3296C11.6715 25.8939 10.2317 24.8883 10.3715 24.7626C10.4694 24.6788 13.4187 22.7654 16.9131 20.5307C20.4076 18.2821 23.4827 16.257 23.7343 16.0056C23.9999 15.7682 24.3353 15.3212 24.5031 15.014C24.7127 14.6089 24.7966 14.1899 24.7966 13.4777C24.7966 12.7933 24.7267 12.3603 24.545 12.0112C24.4052 11.7458 24.0977 11.3128 23.8461 11.0615C23.6085 10.7961 23.1612 10.4609 22.8537 10.3073C22.5462 10.1536 21.9451 10 21.5258 9.97207C21.0925 9.93017 20.5334 9.98603 20.2678 10.0978ZM48.7546 10.0419C48.5449 10.0978 48.1954 10.2514 47.9858 10.3631C47.7761 10.4888 47.3568 10.838 47.0632 11.1592C46.7557 11.5084 46.4622 12.0251 46.3364 12.4721C46.2246 12.8631 46.1267 13.324 46.1267 13.4777C46.1267 13.6313 46.2106 14.0782 46.3224 14.4553C46.4482 14.8464 46.7557 15.405 47.0213 15.7123C47.3288 16.0894 49.719 17.6955 54.136 20.5307C57.7982 22.8771 60.7894 24.8324 60.7894 24.9022C60.8034 24.9581 57.8401 26.8994 54.2199 29.2318C50.5856 31.5503 47.4127 33.6732 47.1471 33.9385C46.8815 34.2039 46.574 34.6788 46.4622 34.986C46.3084 35.3771 46.2525 35.852 46.2945 36.5223C46.3504 37.2626 46.4622 37.6816 46.7697 38.2542C47.0213 38.7151 47.3847 39.148 47.7202 39.3715C48.2094 39.6927 48.4191 39.7346 49.4814 39.7346C50.5577 39.7346 50.7813 39.6927 51.5222 39.3017C51.9694 39.0642 56.1768 36.3966 60.8733 33.3799C65.5559 30.3631 69.6094 27.6955 69.861 27.4581C70.1266 27.2207 70.4621 26.7737 70.6158 26.4665C70.7696 26.1592 70.9373 25.5587 70.9792 25.1397C71.0352 24.595 70.9792 24.1899 70.7975 23.743C70.6717 23.3939 70.3922 22.905 70.1825 22.6397C69.9728 22.3603 68.016 21.0196 65.3462 19.3017C62.8861 17.7235 58.8325 15.1117 56.3305 13.5056C53.8285 11.8994 51.5361 10.4609 51.2286 10.2933C50.9211 10.1397 50.3201 10 49.9007 9.97207C49.4814 9.94413 48.9642 9.97207 48.7546 10.0419Z" fill="black"/>
</svg>
