<svg width="25" height="18" viewBox="0 0 25 18" fill="none" xmlns="http://www.w3.org/2000/svg">
<path fill-rule="evenodd" clip-rule="evenodd" d="M8.88548 0.0230651C8.99294 0.0322911 9.05155 0.115325 9.64258 1.25935L9.8868 1.23629C10.0236 1.21784 10.3508 1.18093 10.6195 1.15325C10.893 1.12096 11.7283 1.0979 12.5244 1.0979C13.3304 1.0979 14.1412 1.12096 14.405 1.15325C14.6589 1.18555 14.9813 1.22245 15.3574 1.26397L15.6163 0.742696C15.758 0.452076 15.9094 0.170682 16.0413 0L16.4809 0.0784214C16.7202 0.119939 17.2282 0.226038 17.6043 0.313685C17.9804 0.405946 18.6398 0.585853 19.0696 0.724244C19.4995 0.858022 20.154 1.08867 21.2042 1.50846L21.5607 2.03895C21.7561 2.32957 22.0541 2.8001 22.2201 3.07688C22.3911 3.35828 22.7135 3.93952 22.9333 4.36853C23.1531 4.79754 23.4315 5.39262 23.5536 5.68324C23.6757 5.97386 23.8515 6.43516 23.9492 6.71194C24.0469 6.98411 24.1886 7.42696 24.2716 7.70374C24.3498 7.97591 24.4719 8.44182 24.5403 8.74167C24.6086 9.0369 24.6966 9.47514 24.7356 9.7104C24.7747 9.94105 24.8529 10.5177 24.9066 10.9882C24.9799 11.6294 25.0043 12.123 24.9994 12.9718C24.9994 13.5946 24.9701 14.3096 24.8822 15.02L24.2472 15.4305C23.9004 15.652 23.3924 15.961 23.1238 16.1133C22.8551 16.2655 22.2739 16.5607 21.8294 16.7729C21.3849 16.9851 20.7499 17.2619 20.4129 17.3911C20.0758 17.5202 19.5385 17.7094 19.2162 17.8109C18.8938 17.917 18.6105 18 18.5812 18C18.5519 18 18.4688 17.9077 18.3907 17.8016C18.3077 17.6955 18.0879 17.368 17.8974 17.0774C17.702 16.7868 17.4724 16.4177 17.3796 16.2563C17.2721 16.0718 17.2331 15.9518 17.2624 15.9288C17.2917 15.9103 17.4871 15.8273 17.702 15.7442C17.9169 15.6658 18.3565 15.4675 18.6789 15.3106C19.0013 15.1538 19.265 15.0015 19.265 14.9692C19.265 14.9416 19.1673 14.8447 19.0452 14.757C18.8303 14.5956 18.8254 14.591 18.6545 14.6648C18.5616 14.7017 18.2197 14.8309 17.8974 14.9554C17.575 15.0753 17.1256 15.2276 16.896 15.2922C16.6665 15.3567 16.2611 15.4628 15.9924 15.5274C15.7238 15.592 15.2402 15.6843 14.9178 15.735C14.5954 15.7858 14.0337 15.8549 13.6723 15.8826C13.2717 15.9149 12.6417 15.9241 12.0604 15.9103C11.4987 15.8919 10.8295 15.8411 10.4241 15.7858C10.048 15.7304 9.43254 15.6197 9.05644 15.532C8.68033 15.449 8.09908 15.2922 7.76205 15.1861C7.42502 15.0753 6.93169 14.9001 6.17459 14.5956L5.95967 14.7432C5.84733 14.8216 5.73987 14.9047 5.72522 14.9323C5.71056 14.96 5.7301 15.0015 5.76429 15.0338C5.80337 15.0615 6.1404 15.2322 6.5165 15.4075C6.89261 15.5828 7.32733 15.7719 7.48363 15.8227C7.63505 15.878 7.76205 15.938 7.76205 15.961C7.76205 15.9795 7.61551 16.2424 7.4299 16.5469C7.24918 16.8514 6.96099 17.2942 6.79492 17.5295C6.62885 17.7601 6.46277 17.9631 6.42858 17.9769C6.39928 17.9908 6.0769 17.9077 5.72033 17.7924C5.36865 17.6771 4.80693 17.4787 4.47479 17.3496C4.14753 17.2204 3.53697 16.9528 3.12179 16.7499C2.70661 16.5515 2.14489 16.2655 1.87624 16.1133C1.6076 15.961 1.09961 15.652 0.117827 15.02L0.0592135 14.5864C0.0299066 14.3465 0.000599701 13.6361 0.000599701 13.0087C-0.00428479 12.1645 0.0201376 11.6386 0.0934049 11.002C0.147134 10.5223 0.244824 9.83496 0.313207 9.46591C0.38159 9.09687 0.518355 8.50641 0.61116 8.1512C0.70885 7.796 0.874923 7.24705 0.982381 6.92875C1.08984 6.61046 1.29987 6.06151 1.44641 5.7063C1.59783 5.3511 1.87624 4.75141 2.06674 4.36853C2.26212 3.99026 2.56984 3.42747 2.75545 3.12301C2.93618 2.81855 3.2439 2.32957 3.43928 2.03895C3.77142 1.54075 3.8105 1.50384 4.05472 1.39774C4.20126 1.33778 4.56271 1.19938 4.85578 1.08867C5.14885 0.973347 5.7008 0.788826 6.0769 0.673501C6.45301 0.558175 6.98053 0.415172 7.24918 0.345977C7.51782 0.281394 7.9672 0.179908 8.2505 0.124552C8.5338 0.0645823 8.8171 0.0184521 8.88548 0.0230651ZM7.17591 7.87442C7.06357 7.95284 6.86819 8.11891 6.75096 8.24346C6.62885 8.37263 6.46766 8.59867 6.38951 8.7509C6.31136 8.90313 6.21367 9.17068 6.17459 9.35059C6.13551 9.5305 6.10132 9.7796 6.10132 9.90415C6.10132 10.0333 6.13551 10.2778 6.17459 10.4577C6.21855 10.6376 6.32113 10.9144 6.40905 11.0805C6.50185 11.2604 6.68258 11.491 6.85842 11.6571C7.01961 11.8093 7.2736 11.9892 7.42013 12.0584C7.56667 12.123 7.78647 12.2014 7.90858 12.2291C8.0307 12.2568 8.24561 12.2799 8.38726 12.2799C8.52403 12.2799 8.76825 12.243 8.92456 12.1968C9.07598 12.1507 9.30066 12.0584 9.42277 11.9938C9.54489 11.9293 9.74515 11.7724 9.86726 11.6525C9.98937 11.5279 10.1506 11.325 10.2287 11.1958C10.3069 11.0712 10.4143 10.8498 10.4632 10.7114C10.512 10.573 10.5657 10.2732 10.5804 10.0425C10.5999 9.74731 10.5853 9.53972 10.5267 9.3183C10.4827 9.143 10.3899 8.88467 10.3166 8.74167C10.2385 8.59405 10.048 8.34495 9.8868 8.1835C9.68165 7.98052 9.49116 7.83752 9.25182 7.72681C8.95875 7.58842 8.8464 7.56535 8.4703 7.5469C8.09908 7.52845 7.98185 7.54229 7.70832 7.62993C7.53248 7.6899 7.29314 7.80061 7.17591 7.87442ZM15.5333 7.85136C15.3867 7.93901 15.1816 8.10507 15.079 8.2204C14.9716 8.33572 14.8348 8.51102 14.7713 8.61251C14.7078 8.71399 14.615 8.92158 14.5613 9.07381C14.5075 9.22604 14.444 9.50743 14.4294 9.69657C14.405 9.94106 14.4196 10.144 14.4733 10.3885C14.5173 10.5777 14.6296 10.8913 14.7322 11.0805C14.8494 11.3065 15.0106 11.5141 15.1865 11.6802C15.3379 11.8186 15.5821 11.9892 15.7286 12.0584C15.8752 12.123 16.0901 12.2014 16.2122 12.2291C16.3343 12.2568 16.5444 12.2799 16.6762 12.2799C16.813 12.2799 17.0328 12.2522 17.1647 12.2199C17.3015 12.183 17.5261 12.0953 17.6727 12.0215C17.8143 11.9477 18.0585 11.7632 18.21 11.611C18.3614 11.4541 18.5421 11.2189 18.6154 11.0805C18.6886 10.9421 18.7814 10.693 18.8205 10.5269C18.8645 10.3608 18.8987 10.0702 18.8987 9.88109C18.8987 9.69195 18.8645 9.41056 18.8254 9.25833C18.7815 9.1061 18.6886 8.857 18.6105 8.70477C18.5323 8.55254 18.3467 8.30805 18.1953 8.16504C18.0146 7.98975 17.7997 7.84213 17.5701 7.73142C17.2624 7.58842 17.1549 7.56535 16.7739 7.5469C16.4369 7.53306 16.2708 7.5469 16.0657 7.61148C15.9191 7.65761 15.6798 7.76371 15.5333 7.85136Z" fill="#1F2937"/>
</svg>
