<svg width="20" height="14" viewBox="0 0 20 14" fill="none" xmlns="http://www.w3.org/2000/svg">
<path fill-rule="evenodd" clip-rule="evenodd" d="M7.10838 0.0179395C7.19435 0.0251153 7.24124 0.0896976 7.71406 0.979498L7.90944 0.961558C8.01885 0.947206 8.28066 0.918503 8.49558 0.896976C8.7144 0.871861 9.3826 0.853921 10.0195 0.853921C10.6643 0.853921 11.313 0.871861 11.524 0.896976C11.7272 0.922091 11.9851 0.950794 12.2859 0.983085L12.493 0.577653C12.6064 0.351615 12.7275 0.132752 12.833 0L13.1847 0.0609944C13.3762 0.0932855 13.7825 0.175807 14.0834 0.243977C14.3843 0.315735 14.9118 0.455664 15.2557 0.563301C15.5996 0.66735 16.1232 0.846745 16.9633 1.17324L17.2486 1.58585C17.4049 1.81189 17.6432 2.17786 17.7761 2.39313C17.9129 2.61199 18.1708 3.06407 18.3466 3.39774C18.5225 3.73142 18.7452 4.19426 18.8429 4.4203C18.9406 4.64633 19.0812 5.00513 19.1594 5.2204C19.2375 5.43209 19.3509 5.77652 19.4173 5.9918C19.4798 6.20349 19.5775 6.56586 19.6322 6.79908C19.6869 7.0287 19.7572 7.36955 19.7885 7.55254C19.8198 7.73193 19.8823 8.18042 19.9253 8.54639C19.9839 9.0451 20.0034 9.42901 19.9995 10.0892C19.9995 10.5736 19.9761 11.1297 19.9057 11.6822L19.3978 12.0015C19.1203 12.1738 18.7139 12.4141 18.499 12.5325C18.2841 12.6509 17.8191 12.8806 17.4635 13.0456C17.1079 13.2107 16.5999 13.4259 16.3303 13.5264C16.0607 13.6269 15.6308 13.774 15.3729 13.8529C15.115 13.9354 14.8884 14 14.8649 14C14.8415 14 14.7751 13.9282 14.7126 13.8457C14.6461 13.7632 14.4703 13.5085 14.3179 13.2824C14.1616 13.0564 13.9779 12.7693 13.9037 12.6438C13.8177 12.5003 13.7865 12.407 13.8099 12.389C13.8333 12.3747 13.9896 12.3101 14.1616 12.2455C14.3335 12.1845 14.6852 12.0302 14.9431 11.9083C15.201 11.7863 15.412 11.6679 15.412 11.6427C15.412 11.6212 15.3339 11.5459 15.2362 11.4777C15.0642 11.3521 15.0603 11.3485 14.9236 11.4059C14.8493 11.4346 14.5758 11.5351 14.3179 11.632C14.06 11.7253 13.7005 11.8437 13.5168 11.8939C13.3332 11.9441 13.0088 12.0267 12.7939 12.0769C12.579 12.1271 12.1922 12.1989 11.9343 12.2383C11.6764 12.2778 11.227 12.3316 10.9378 12.3532C10.6174 12.3783 10.1133 12.3854 9.64832 12.3747C9.19894 12.3603 8.6636 12.3209 8.33927 12.2778C8.03839 12.2348 7.54603 12.1486 7.24515 12.0805C6.94427 12.0159 6.47926 11.8939 6.20964 11.8114C5.94001 11.7253 5.54535 11.5889 4.93967 11.3521L4.76774 11.4669C4.67786 11.5279 4.5919 11.5925 4.58017 11.614C4.56845 11.6356 4.58408 11.6679 4.61143 11.693C4.6427 11.7145 4.91232 11.8473 5.2132 11.9836C5.51409 12.1199 5.86186 12.267 5.98691 12.3065C6.10804 12.3496 6.20964 12.3962 6.20964 12.4141C6.20964 12.4285 6.09241 12.633 5.94392 12.8698C5.79934 13.1066 5.56879 13.451 5.43594 13.634C5.30308 13.8134 5.17022 13.9713 5.14287 13.9821C5.11942 13.9928 4.86152 13.9282 4.57627 13.8385C4.29492 13.7488 3.84555 13.5946 3.57983 13.4941C3.31802 13.3936 2.82957 13.1855 2.49743 13.0277C2.16528 12.8734 1.71591 12.6509 1.50099 12.5325C1.28608 12.4141 0.879687 12.1738 0.0942619 11.6822L0.0473708 11.345C0.0239253 11.1584 0.000479761 10.6058 0.000479761 10.1179C-0.00342783 9.4613 0.0161101 9.05228 0.074724 8.55715C0.117707 8.18401 0.195859 7.64941 0.250565 7.36238C0.305272 7.07535 0.414684 6.61609 0.488928 6.33983C0.56708 6.06356 0.699938 5.6366 0.785905 5.38903C0.871872 5.14147 1.0399 4.71451 1.15713 4.43824C1.27826 4.16197 1.50099 3.69554 1.65339 3.39774C1.80969 3.10354 2.05587 2.66581 2.20436 2.42901C2.34894 2.19221 2.59512 1.81189 2.75142 1.58585C3.01714 1.19836 3.0484 1.16966 3.24378 1.08713C3.36101 1.04049 3.65017 0.932855 3.88462 0.846745C4.11908 0.757048 4.56064 0.613532 4.86152 0.523834C5.1624 0.434136 5.58442 0.322911 5.79934 0.269093C6.01426 0.218862 6.37376 0.139928 6.6004 0.0968734C6.82704 0.0502307 7.05368 0.0143516 7.10838 0.0179395ZM5.74073 6.12455C5.65085 6.18555 5.49455 6.31471 5.40077 6.41158C5.30308 6.51204 5.17413 6.68785 5.11161 6.80625C5.04908 6.92465 4.97093 7.13275 4.93967 7.27268C4.90841 7.41261 4.88106 7.60636 4.88106 7.70323C4.88106 7.80369 4.90841 7.99385 4.93967 8.13378C4.97484 8.27371 5.0569 8.48898 5.12724 8.61814C5.20148 8.75807 5.34606 8.93747 5.48673 9.06663C5.61568 9.18503 5.81888 9.32496 5.93611 9.37878C6.05333 9.42901 6.22918 9.49 6.32687 9.51153C6.42456 9.53306 6.59649 9.551 6.70981 9.551C6.81922 9.551 7.0146 9.5223 7.13964 9.48642C7.26078 9.45054 7.44053 9.37878 7.53822 9.32855C7.63591 9.27832 7.79612 9.15633 7.89381 9.06304C7.9915 8.96617 8.12045 8.8083 8.18297 8.70784C8.24549 8.61097 8.33146 8.43875 8.37053 8.33111C8.40961 8.22347 8.45259 7.99026 8.46432 7.81087C8.47995 7.58124 8.46823 7.41978 8.42133 7.24756C8.38617 7.11122 8.31192 6.9103 8.25331 6.79908C8.19079 6.68426 8.03839 6.49052 7.90944 6.36494C7.74532 6.20707 7.59293 6.09585 7.40145 6.00974C7.167 5.9021 7.07712 5.88416 6.77624 5.86981C6.47926 5.85546 6.38548 5.86622 6.16665 5.93439C6.02598 5.98103 5.83451 6.06714 5.74073 6.12455ZM12.4266 6.10661C12.3094 6.17478 12.1453 6.30395 12.0632 6.39364C11.9772 6.48334 11.8678 6.61968 11.817 6.69862C11.7662 6.77755 11.692 6.93901 11.649 7.05741C11.606 7.17581 11.5552 7.39467 11.5435 7.54177C11.524 7.73193 11.5357 7.8898 11.5787 8.07996C11.6138 8.22706 11.7037 8.47104 11.7858 8.61814C11.8796 8.79395 12.0085 8.95541 12.1492 9.08457C12.2703 9.19221 12.4657 9.32496 12.5829 9.37878C12.7001 9.42901 12.8721 9.49 12.9698 9.51153C13.0675 9.53306 13.2355 9.551 13.341 9.551C13.4504 9.551 13.6262 9.52947 13.7317 9.50436C13.8412 9.47565 14.0209 9.40748 14.1381 9.35008C14.2515 9.29267 14.4468 9.14915 14.568 9.03075C14.6891 8.90876 14.8337 8.72578 14.8923 8.61814C14.9509 8.51051 15.0252 8.31676 15.0564 8.1876C15.0916 8.05843 15.1189 7.83239 15.1189 7.68529C15.1189 7.53819 15.0916 7.31932 15.0603 7.20092C15.0252 7.08252 14.9509 6.88877 14.8884 6.77037C14.8259 6.65197 14.6774 6.46181 14.5562 6.35059C14.4117 6.21425 14.2397 6.09944 14.0561 6.01333C13.8099 5.9021 13.7239 5.88416 13.4191 5.86981C13.1495 5.85905 13.0167 5.86981 12.8525 5.92004C12.7353 5.95592 12.5438 6.03844 12.4266 6.10661Z" fill="white"/>
</svg>
