<svg width="11" height="19" viewBox="0 0 11 19" fill="none" xmlns="http://www.w3.org/2000/svg">
<path d="M7.09099 0.0935299C6.78723 0.144516 6.39882 0.227947 6.21956 0.278933C6.04029 0.334554 5.74151 0.450431 5.54731 0.538497C5.35808 0.626564 5.03938 0.811967 4.85016 0.946384C4.66093 1.0808 4.39701 1.30328 4.27252 1.4377C4.14803 1.57675 3.96378 1.80387 3.86917 1.94292C3.76958 2.08198 3.63015 2.323 3.56043 2.47596C3.48574 2.62892 3.38117 2.88848 3.32639 3.05534C3.27162 3.22221 3.19194 3.55593 3.15708 3.79695C3.10729 4.10287 3.08239 4.64054 3.08239 5.54901V6.8561C0.732005 6.8561 0.333635 6.87464 0.244002 6.91636C0.174287 6.94881 0.0946128 7.04614 0.0597554 7.13421C0.0199184 7.24545 0 7.75531 0 8.80284C0 9.85036 0.0199184 10.3602 0.0597554 10.4715C0.104572 10.592 0.164327 10.6476 0.293798 10.6893C0.408329 10.7264 0.901313 10.7449 1.77773 10.7449L3.08239 10.7496V18.7219L3.33137 19C6.60797 18.9954 7.11091 18.9815 7.17067 18.9397C7.21548 18.9073 7.27524 18.8378 7.30511 18.7822C7.34993 18.7034 7.36487 17.628 7.36487 14.6894V10.7032C10.5568 10.68 10.7062 10.6708 10.7859 10.5966C10.8705 10.5224 10.8755 10.3834 10.8755 8.77966V7.04614C10.6514 6.83293 10.6415 6.83293 9.00815 6.81902L7.36487 6.80975C7.38977 4.49222 7.39973 4.31145 7.4794 4.17703C7.52422 4.09823 7.61385 3.98699 7.67859 3.93137C7.73834 3.88039 7.84292 3.81086 7.91263 3.78305C7.98732 3.7506 8.57492 3.72279 9.39656 3.70889L10.761 3.68108L11 3.42615C11 0.932479 10.9801 0.283568 10.9502 0.227947C10.9203 0.176961 10.8307 0.1028 10.751 0.0657195C10.6265 0.0100986 10.3427 -0.00380666 9.1177 0.000828411C7.89271 0.000828411 7.54414 0.0193687 7.09099 0.0935299Z" fill="#1F2937"/>
</svg>
