<svg width="9" height="15" viewBox="0 0 9 15" fill="none" xmlns="http://www.w3.org/2000/svg">
<path d="M5.80172 0.0738394C5.55319 0.114091 5.2354 0.179958 5.08873 0.22021C4.94206 0.264121 4.6976 0.355603 4.53871 0.425129C4.38388 0.494655 4.12313 0.641026 3.96831 0.747145C3.81349 0.853264 3.59756 1.02891 3.4957 1.13503C3.39384 1.24481 3.2431 1.42411 3.16569 1.53389C3.0842 1.64367 2.97012 1.83395 2.91308 1.9547C2.85197 2.07546 2.76641 2.28038 2.72159 2.41211C2.67678 2.54385 2.61159 2.80731 2.58307 2.9976C2.54233 3.23911 2.52196 3.66358 2.52196 4.3808V5.41271C0.598913 5.41271 0.272974 5.42735 0.199638 5.46028C0.142598 5.4859 0.0774105 5.56274 0.0488908 5.63227C0.0162968 5.72009 0 6.12261 0 6.94961C0 7.7766 0.0162968 8.17912 0.0488908 8.26694C0.085559 8.36209 0.13445 8.406 0.24038 8.43893C0.334088 8.4682 0.737438 8.48284 1.4545 8.48284L2.52196 8.4865V14.7804L2.72567 15C5.40652 14.9963 5.81802 14.9854 5.86691 14.9524C5.90358 14.9268 5.95247 14.8719 5.97691 14.828C6.01358 14.7658 6.0258 13.9169 6.0258 11.5969V8.44991C8.63739 8.43161 8.75962 8.42429 8.82481 8.36574C8.89407 8.3072 8.89814 8.19742 8.89814 6.93131V5.56274C8.7148 5.39442 8.70665 5.39442 7.3703 5.38344L6.0258 5.37612C6.04618 3.54649 6.05432 3.40377 6.11951 3.29766C6.15618 3.23545 6.22952 3.14763 6.28248 3.10371C6.33137 3.06346 6.41693 3.00857 6.47397 2.98662C6.53508 2.961 7.01584 2.93905 7.68809 2.92807L8.80444 2.90611L9 2.70485C9 0.736167 8.9837 0.22387 8.95926 0.179958C8.93481 0.139706 8.86148 0.081158 8.79629 0.0518838C8.69443 0.0079726 8.4622 -0.00300526 7.45994 0.000654009C6.45767 0.000654009 6.17248 0.0152911 5.80172 0.0738394Z" fill="white"/>
</svg>
