<svg width="25" height="24" viewBox="0 0 25 24" fill="none" xmlns="http://www.w3.org/2000/svg">
<path fill-rule="evenodd" clip-rule="evenodd" d="M12.7374 0.00277847C15.7676 0.00747001 17.6376 0.0309277 18.0488 0.06846C18.3963 0.0966093 18.9397 0.162291 19.2481 0.213898C19.5565 0.270196 20.0656 0.392176 20.374 0.490699C20.6824 0.589221 21.1034 0.748733 21.3041 0.847255C21.5048 0.945778 21.8377 1.13344 22.0384 1.26011C22.2391 1.39147 22.6111 1.69173 22.8657 1.92162C23.1202 2.15619 23.4482 2.50806 23.6 2.70041C23.7468 2.89277 23.972 3.23994 24.0993 3.47452C24.2266 3.70909 24.4077 4.10787 24.5007 4.36591C24.5937 4.62394 24.7161 5.0368 24.7699 5.28076C24.8238 5.52472 24.9021 5.94696 24.9364 6.21907C24.9853 6.59908 25 7.89395 25 11.9427C25 15.9352 24.9853 17.2958 24.9364 17.6899C24.9021 17.9761 24.8189 18.4499 24.7503 18.7455C24.6818 19.041 24.5398 19.5055 24.4322 19.7776C24.3245 20.0497 24.1384 20.4391 24.0161 20.6456C23.8888 20.852 23.6734 21.1663 23.5314 21.3493C23.3895 21.5323 23.0762 21.856 22.8363 22.0765C22.6013 22.297 22.2195 22.5972 21.9894 22.7427C21.7593 22.8881 21.4412 23.0664 21.2796 23.1461C21.1181 23.2212 20.7852 23.3526 20.5453 23.437C20.3055 23.5168 19.9285 23.6247 19.7131 23.6716C19.4977 23.7232 19.1796 23.7842 19.0033 23.8076C18.8271 23.8358 18.2544 23.8874 17.7306 23.9296C16.9767 23.9859 15.8802 24 12.5416 24C9.31565 24 8.08694 23.9812 7.37713 23.9296C6.86802 23.8921 6.28059 23.8405 6.07989 23.8123C5.87918 23.7842 5.46309 23.6951 5.16448 23.62C4.86097 23.5449 4.4204 23.4042 4.18543 23.3057C3.94556 23.2118 3.58332 23.0382 3.36793 22.9209C3.15743 22.8037 2.7805 22.5503 2.53574 22.3533C2.29097 22.1609 1.94341 21.8325 1.76718 21.6261C1.59095 21.4243 1.38046 21.1616 1.29724 21.0443C1.21402 20.927 1.05737 20.6643 0.949677 20.4579C0.841982 20.2515 0.685334 19.9137 0.60701 19.7072C0.528686 19.5008 0.416096 19.1396 0.357353 18.9097C0.293715 18.6798 0.215391 18.2763 0.181124 18.0183C0.141962 17.7603 0.0881143 17.019 0.0538477 16.3762C0.0244762 15.7288 0 13.7678 0 12.0131C0 10.2585 0.0244762 8.29273 0.0538477 7.64999C0.0881143 7.00255 0.146857 6.24722 0.186019 5.96103C0.225181 5.67954 0.313295 5.24323 0.381829 4.99927C0.445467 4.75531 0.558058 4.40344 0.631486 4.22516C0.70002 4.04688 0.856667 3.70909 0.983944 3.47452C1.10632 3.23994 1.33151 2.89277 1.48326 2.70041C1.63012 2.50806 1.92873 2.18434 2.14412 1.97792C2.35461 1.77618 2.66301 1.51815 2.82455 1.40086C2.9861 1.28357 3.26023 1.11467 3.43646 1.02084C3.61269 0.927012 3.94556 0.772191 4.18543 0.673669C4.4204 0.575146 4.86097 0.4344 5.15958 0.359335C5.46309 0.279579 5.88898 0.195132 6.10437 0.162291C6.31976 0.134142 6.84844 0.0825346 7.27922 0.0496939C7.85686 0.00747001 9.29606 -0.0066046 12.7374 0.00277847ZM6.32465 2.34386C6.0701 2.38608 5.64911 2.48929 5.39456 2.57374C5.14 2.65819 4.75817 2.8177 4.54278 2.93499C4.3225 3.05697 3.99941 3.29624 3.77913 3.49797C3.56863 3.69033 3.29939 3.99997 3.18191 4.17825C3.05953 4.35653 2.89309 4.66617 2.80987 4.85852C2.73154 5.05087 2.62385 5.34644 2.57979 5.51534C2.53574 5.68423 2.4672 6.04079 2.42804 6.3129C2.39377 6.58501 2.33503 7.63122 2.30566 8.63521C2.27139 9.76118 2.2616 11.5768 2.28118 13.3502C2.29587 14.9359 2.33503 16.5639 2.35951 16.9627C2.38888 17.3615 2.45741 17.901 2.51126 18.159C2.56511 18.4171 2.68259 18.8065 2.76581 19.027C2.85393 19.2475 3.00078 19.5524 3.09379 19.7026C3.1868 19.8527 3.42177 20.1342 3.60779 20.3312C3.79381 20.5236 4.07284 20.7675 4.2197 20.8754C4.36656 20.9786 4.67496 21.1475 4.90503 21.2461C5.13511 21.3493 5.51694 21.4806 5.7617 21.5369C6.00646 21.5979 6.3736 21.6683 6.5792 21.6965C6.7897 21.7246 7.57294 21.7715 8.31702 21.7997C9.18347 21.8325 11.0828 21.8419 13.5451 21.8278C15.7382 21.8137 17.6669 21.7809 17.9998 21.7481C18.3229 21.7199 18.8173 21.6495 19.1012 21.5886C19.3852 21.5276 19.7915 21.4056 20.0069 21.3211C20.2222 21.2367 20.5502 21.0678 20.7411 20.9458C20.9321 20.8238 21.2502 20.5611 21.4509 20.3547C21.6517 20.1482 21.9013 19.8433 22.0041 19.6791C22.102 19.5149 22.2489 19.2193 22.3272 19.027C22.4055 18.8346 22.5181 18.464 22.572 18.206C22.6258 17.9479 22.6992 17.4178 22.7335 17.0331C22.7776 16.5311 22.7971 15.0861 22.7971 12.0131C22.7971 8.88855 22.7776 7.49517 22.7335 6.96971C22.6992 6.57093 22.6356 6.07363 22.5915 5.8672C22.5524 5.66077 22.4447 5.29014 22.3517 5.04618C22.2587 4.80222 22.0922 4.45036 21.9796 4.27208C21.867 4.08442 21.5978 3.77008 21.3579 3.5402C21.1279 3.3197 20.8048 3.06635 20.6432 2.97721C20.4817 2.88808 20.1831 2.74733 19.9824 2.66757C19.7817 2.58782 19.4635 2.48929 19.2726 2.44238C19.0817 2.40015 18.6998 2.32978 18.4159 2.29225C17.9851 2.23126 17.1236 2.21718 13.0067 2.2078C10.3143 2.19842 7.81281 2.21249 7.45056 2.23126C7.08831 2.25472 6.5792 2.30632 6.32465 2.34386ZM19.1991 4.15479C19.3754 4.15479 19.6299 4.18763 19.7621 4.23455C19.9285 4.28615 20.0901 4.39406 20.281 4.57234C20.4817 4.76469 20.5747 4.90074 20.6432 5.0931C20.7069 5.28076 20.7216 5.44027 20.7069 5.67954C20.6922 5.88597 20.6432 6.08301 20.5796 6.20499C20.5209 6.31759 20.3985 6.48179 20.3104 6.57562C20.2271 6.66946 20.0313 6.80082 19.8845 6.8665C19.6642 6.96971 19.5467 6.99317 19.2236 6.99317C18.9201 6.99317 18.783 6.96971 18.6117 6.88996C18.4893 6.83366 18.2984 6.6976 18.1809 6.58501C18.0634 6.47241 17.9215 6.28944 17.8627 6.17215C17.7795 6.00795 17.755 5.87659 17.755 5.58571C17.755 5.30891 17.7844 5.15409 17.8578 4.99927C17.9117 4.88198 18.0341 4.70839 18.1271 4.60987C18.2201 4.50666 18.4257 4.36591 18.5872 4.29084C18.8173 4.18294 18.9446 4.15479 19.1991 4.15479ZM12.4927 5.84844C12.9381 5.84374 13.3689 5.87189 13.643 5.91412C13.8829 5.95634 14.3137 6.06425 14.5976 6.15339C14.8815 6.24253 15.2976 6.41142 15.5277 6.52871C15.7578 6.646 16.1151 6.86181 16.3305 7.00725C16.541 7.15268 16.9131 7.4764 17.1627 7.72036C17.4075 7.96432 17.7355 8.34433 17.8872 8.56484C18.039 8.78534 18.2299 9.09967 18.318 9.26857C18.4061 9.43746 18.5481 9.78464 18.6411 10.0427C18.7292 10.3007 18.8369 10.7042 18.8809 10.9341C18.925 11.1733 18.9544 11.6284 18.9544 11.9897C18.9544 12.3509 18.925 12.806 18.8809 13.0453C18.8369 13.2751 18.7243 13.688 18.6313 13.9601C18.5383 14.2322 18.3621 14.631 18.2397 14.8515C18.1173 15.072 17.8921 15.4145 17.7404 15.6209C17.5886 15.8226 17.2508 16.1792 16.9963 16.4185C16.7417 16.6577 16.3648 16.958 16.1641 17.0894C15.9634 17.216 15.6648 17.3896 15.5032 17.4647C15.3417 17.5444 15.0676 17.6664 14.8913 17.7321C14.7151 17.8025 14.3528 17.9104 14.0836 17.9714C13.8144 18.0371 13.364 18.1074 13.0801 18.1309C12.7864 18.1543 12.3458 18.1543 12.0521 18.1356C11.7682 18.1121 11.3716 18.0605 11.1709 18.0183C10.9702 17.9761 10.6374 17.8869 10.4367 17.8212C10.2359 17.7556 9.89328 17.6148 9.67789 17.5116C9.4625 17.4084 9.12963 17.2254 8.94361 17.1034C8.75759 16.9815 8.45408 16.7563 8.27785 16.6061C8.10162 16.4513 7.83728 16.2027 7.69532 16.0478C7.55336 15.893 7.33307 15.6209 7.2058 15.4379C7.07852 15.255 6.88271 14.9359 6.77012 14.7201C6.66242 14.509 6.51067 14.1712 6.44214 13.9695C6.3736 13.7724 6.2708 13.3971 6.21696 13.1391C6.14842 12.8013 6.12395 12.4776 6.12395 11.9897C6.12395 11.5017 6.14842 11.178 6.21696 10.8402C6.2708 10.5822 6.36381 10.235 6.42256 10.0661C6.4813 9.89723 6.60858 9.59228 6.71138 9.38586C6.80928 9.17943 7.01978 8.81818 7.17642 8.58829C7.35755 8.32088 7.66105 7.9737 8.00861 7.64529C8.34149 7.32627 8.71353 7.02132 8.96808 6.86181C9.19816 6.72106 9.52614 6.53809 9.70237 6.45364C9.8786 6.3692 10.2408 6.22845 10.5101 6.144C10.7793 6.05955 11.1758 5.95634 11.3912 5.91881C11.6066 5.88128 12.101 5.84844 12.4927 5.84844ZM10.9996 8.28334C10.7842 8.3631 10.4513 8.5273 10.2653 8.64928C10.0793 8.76657 9.81496 8.95893 9.68279 9.07621C9.55062 9.1935 9.34991 9.40931 9.23732 9.55006C9.12473 9.69081 8.9534 9.94415 8.85549 10.113C8.76248 10.2819 8.62542 10.5963 8.55199 10.8168C8.44429 11.1311 8.41492 11.3422 8.39044 11.802C8.37576 12.2336 8.39044 12.487 8.44429 12.7638C8.48835 12.9702 8.58136 13.2751 8.64989 13.444C8.71843 13.6129 8.86039 13.885 8.96319 14.0539C9.06599 14.2228 9.28138 14.4949 9.43803 14.6591C9.59957 14.8234 9.84923 15.0485 9.99608 15.1564C10.1429 15.2644 10.4073 15.4286 10.5835 15.5224C10.7597 15.6115 11.0877 15.7429 11.3178 15.8133C11.6556 15.9165 11.8563 15.9446 12.3703 15.9634C12.8255 15.9822 13.1046 15.9681 13.3493 15.9165C13.5402 15.8789 13.8682 15.7804 14.0836 15.7007C14.299 15.6209 14.6172 15.4661 14.7934 15.3582C14.9696 15.2456 15.2536 15.0298 15.4249 14.875C15.5962 14.7201 15.8606 14.4152 16.0074 14.1947C16.1592 13.9742 16.3501 13.6364 16.4235 13.444C16.5019 13.2517 16.5949 12.9374 16.634 12.7497C16.6732 12.5667 16.7026 12.2195 16.7026 11.9897C16.7026 11.7598 16.6732 11.4126 16.634 11.2249C16.5998 11.042 16.497 10.7183 16.4089 10.5118C16.3256 10.3054 16.1396 9.96761 15.9928 9.76118C15.8508 9.55475 15.5962 9.25918 15.4249 9.10436C15.2536 8.94954 14.9452 8.72435 14.7445 8.60237C14.5438 8.48039 14.2256 8.32557 14.0347 8.25989C13.8437 8.18951 13.5304 8.10507 13.3346 8.06753C13.1437 8.03 12.7668 8.00185 12.5024 8.00654C12.243 8.00654 11.8856 8.03938 11.7094 8.07223C11.5332 8.10507 11.215 8.1989 10.9996 8.28334Z" fill="#1F2937"/>
</svg>
