<svg width="15" height="14" viewBox="0 0 15 14" fill="none" xmlns="http://www.w3.org/2000/svg">
<path fill-rule="evenodd" clip-rule="evenodd" d="M7.64245 0.00162078C9.46054 0.00435751 10.5825 0.0180412 10.8293 0.039935C11.0378 0.0563554 11.3638 0.0946696 11.5489 0.124774C11.7339 0.157614 12.0394 0.228769 12.2244 0.286241C12.4094 0.343712 12.662 0.436761 12.7825 0.494232C12.9029 0.551704 13.1026 0.661173 13.223 0.735065C13.3434 0.811693 13.5667 0.986844 13.7194 1.12094C13.8721 1.25778 14.0689 1.46304 14.16 1.57524C14.2481 1.68745 14.3832 1.88997 14.4596 2.0268C14.5359 2.16364 14.6446 2.39626 14.7004 2.54678C14.7562 2.6973 14.8296 2.93813 14.862 3.08044C14.8943 3.22275 14.9413 3.46906 14.9618 3.62779C14.9912 3.84946 15 4.6048 15 6.9666C15 9.29556 14.9912 10.0892 14.9618 10.3191C14.9413 10.486 14.8913 10.7624 14.8502 10.9349C14.8091 11.1073 14.7239 11.3782 14.6593 11.5369C14.5947 11.6957 14.4831 11.9228 14.4096 12.0432C14.3333 12.1637 14.204 12.347 14.1189 12.4537C14.0337 12.5605 13.8457 12.7493 13.7018 12.8779C13.5608 13.0066 13.3317 13.1817 13.1937 13.2666C13.0556 13.3514 12.8647 13.4554 12.7678 13.5019C12.6708 13.5457 12.4711 13.6223 12.3272 13.6716C12.1833 13.7181 11.9571 13.7811 11.8279 13.8084C11.6986 13.8385 11.5077 13.8741 11.402 13.8878C11.2963 13.9042 10.9526 13.9343 10.6383 13.9589C10.186 13.9918 9.5281 14 7.52497 14C5.58939 14 4.85216 13.9891 4.42628 13.9589C4.12081 13.9371 3.76836 13.907 3.64793 13.8905C3.52751 13.8741 3.27785 13.8221 3.09869 13.7783C2.91658 13.7345 2.65224 13.6524 2.51126 13.595C2.36734 13.5402 2.14999 13.439 2.02076 13.3706C1.89446 13.3021 1.6683 13.1544 1.52144 13.0394C1.37458 12.9272 1.16605 12.7356 1.06031 12.6152C0.954572 12.4975 0.828275 12.3443 0.778343 12.2759C0.728412 12.2074 0.634423 12.0542 0.569806 11.9338C0.505189 11.8134 0.4112 11.6163 0.364206 11.4959C0.317212 11.3755 0.249657 11.1647 0.214412 11.0306C0.176229 10.8965 0.129234 10.6612 0.108674 10.5107C0.0851772 10.3601 0.0528686 9.92774 0.0323086 9.55281C0.0146857 9.17514 0 8.03119 0 7.00765C0 5.98412 0.0146857 4.83742 0.0323086 4.46249C0.0528686 4.08482 0.0881144 3.64421 0.111612 3.47727C0.135109 3.31307 0.187977 3.05855 0.229097 2.91624C0.26728 2.77393 0.334835 2.56867 0.378892 2.46468C0.420012 2.36068 0.514 2.16364 0.590366 2.0268C0.663795 1.88997 0.798903 1.68745 0.889955 1.57524C0.978069 1.46304 1.15724 1.2742 1.28647 1.15378C1.41277 1.03611 1.59781 0.885585 1.69473 0.817167C1.79166 0.748748 1.95614 0.650226 2.06188 0.595491C2.16761 0.540757 2.36734 0.450445 2.51126 0.392973C2.65224 0.335502 2.91658 0.2534 3.09575 0.209612C3.27785 0.163088 3.53339 0.113827 3.66262 0.0946696C3.79185 0.0782493 4.10907 0.0481452 4.36753 0.0289881C4.71412 0.00435751 5.57764 -0.00385269 7.64245 0.00162078ZM3.79479 1.36725C3.64206 1.39188 3.38947 1.45209 3.23673 1.50135C3.084 1.55061 2.8549 1.64366 2.72567 1.71208C2.5935 1.78323 2.39965 1.92281 2.26748 2.04049C2.14118 2.15269 1.97964 2.33332 1.90914 2.43731C1.83572 2.54131 1.73585 2.72193 1.68592 2.83414C1.63893 2.94634 1.57431 3.11876 1.54788 3.21728C1.52144 3.3158 1.48032 3.52379 1.45682 3.68252C1.43626 3.84125 1.40102 4.45155 1.3834 5.03721C1.36284 5.69402 1.35696 6.75314 1.36871 7.78762C1.37752 8.71264 1.40102 9.66228 1.4157 9.8949C1.43333 10.1275 1.47445 10.4423 1.50676 10.5928C1.53906 10.7433 1.60956 10.9704 1.65949 11.0991C1.71236 11.2277 1.80047 11.4056 1.85628 11.4932C1.91208 11.5807 2.05306 11.7449 2.16468 11.8599C2.27629 11.9721 2.4437 12.1144 2.53182 12.1773C2.61993 12.2375 2.80497 12.3361 2.94302 12.3935C3.08106 12.4537 3.31016 12.5304 3.45702 12.5632C3.60388 12.5988 3.82416 12.6398 3.94752 12.6563C4.07382 12.6727 4.54376 12.7001 4.99021 12.7165C5.51008 12.7356 6.6497 12.7411 8.12708 12.7329C9.44292 12.7247 10.6002 12.7055 10.7999 12.6864C10.9937 12.6699 11.2904 12.6289 11.4607 12.5933C11.6311 12.5577 11.8749 12.4866 12.0041 12.4373C12.1333 12.3881 12.3301 12.2895 12.4447 12.2184C12.5592 12.1472 12.7501 11.994 12.8706 11.8736C12.991 11.7531 13.1408 11.5753 13.2025 11.4795C13.2612 11.3837 13.3493 11.2113 13.3963 11.0991C13.4433 10.9869 13.5109 10.7707 13.5432 10.6201C13.5755 10.4696 13.6195 10.1604 13.6401 9.93596C13.6665 9.64312 13.6783 8.80021 13.6783 7.00765C13.6783 5.18499 13.6665 4.37218 13.6401 4.06567C13.6195 3.83304 13.5814 3.54295 13.5549 3.42253C13.5314 3.30212 13.4668 3.08592 13.411 2.94361C13.3552 2.8013 13.2553 2.59604 13.1878 2.49205C13.1202 2.38258 12.9587 2.19922 12.8148 2.06512C12.6767 1.93649 12.4829 1.78871 12.3859 1.73671C12.289 1.68471 12.1098 1.60261 11.9894 1.55608C11.869 1.50956 11.6781 1.45209 11.5635 1.42472C11.449 1.40009 11.2199 1.35904 11.0495 1.33715C10.7911 1.30157 10.2741 1.29336 7.80399 1.28788C6.18856 1.28241 4.68768 1.29062 4.47033 1.30157C4.25299 1.31525 3.94752 1.34536 3.79479 1.36725ZM11.5195 2.42363C11.6252 2.42363 11.778 2.44278 11.8573 2.47015C11.9571 2.50026 12.054 2.5632 12.1686 2.6672C12.289 2.7794 12.3448 2.85877 12.3859 2.97097C12.4241 3.08044 12.4329 3.17349 12.4241 3.31307C12.4153 3.43348 12.3859 3.54842 12.3478 3.61958C12.3125 3.68526 12.2391 3.78105 12.1862 3.83578C12.1363 3.89052 12.0188 3.96714 11.9307 4.00546C11.7985 4.06567 11.728 4.07935 11.5342 4.07935C11.3521 4.07935 11.2698 4.06567 11.167 4.01914C11.0936 3.9863 10.979 3.90694 10.9086 3.84125C10.8381 3.77557 10.7529 3.66884 10.7176 3.60042C10.6677 3.50464 10.653 3.42801 10.653 3.25833C10.653 3.09686 10.6706 3.00655 10.7147 2.91624C10.747 2.84782 10.8204 2.74656 10.8762 2.68909C10.9321 2.62888 11.0554 2.54678 11.1523 2.50299C11.2904 2.44005 11.3668 2.42363 11.5195 2.42363ZM7.49559 3.41159C7.76287 3.40885 8.02134 3.42527 8.18582 3.4499C8.32974 3.47453 8.58821 3.53748 8.75857 3.58948C8.92892 3.64147 9.17858 3.74 9.31662 3.80841C9.45467 3.87683 9.66908 4.00272 9.79832 4.08756C9.92461 4.1724 10.1478 4.36123 10.2976 4.50354C10.4445 4.64585 10.6413 4.86753 10.7323 4.99615C10.8234 5.12478 10.9379 5.30814 10.9908 5.40666C11.0437 5.50519 11.1288 5.70771 11.1846 5.85823C11.2375 6.00875 11.3021 6.2441 11.3286 6.3782C11.355 6.51778 11.3726 6.78324 11.3726 6.99397C11.3726 7.2047 11.355 7.47016 11.3286 7.60973C11.3021 7.74383 11.2346 7.98467 11.1788 8.1434C11.123 8.30213 11.0172 8.53475 10.9438 8.66337C10.8704 8.792 10.7353 8.99178 10.6442 9.1122C10.5532 9.22988 10.3505 9.43787 10.1978 9.57744C10.045 9.71702 9.81888 9.89217 9.69845 9.9688C9.57803 10.0427 9.39886 10.1439 9.30194 10.1877C9.20501 10.2343 9.04053 10.3054 8.9348 10.3437C8.82906 10.3848 8.61171 10.4477 8.45017 10.4833C8.28862 10.5216 8.01841 10.5627 7.84805 10.5764C7.67182 10.59 7.40748 10.59 7.23125 10.5791C7.0609 10.5654 6.82299 10.5353 6.70256 10.5107C6.58214 10.486 6.38242 10.434 6.26199 10.3957C6.14157 10.3574 5.93597 10.2753 5.80674 10.2151C5.6775 10.1549 5.47778 10.0482 5.36616 9.97701C5.25455 9.90585 5.07245 9.77449 4.96671 9.68691C4.86097 9.5966 4.70237 9.45155 4.61719 9.36124C4.53201 9.27093 4.39984 9.1122 4.32348 9.00547C4.24711 8.89873 4.12963 8.71264 4.06207 8.58675C3.99745 8.46359 3.9064 8.26655 3.86528 8.14887C3.82416 8.03393 3.76248 7.81499 3.73017 7.66447C3.68905 7.46742 3.67437 7.27859 3.67437 6.99397C3.67437 6.70935 3.68905 6.52051 3.73017 6.32347C3.76248 6.17295 3.81829 5.97043 3.85353 5.87191C3.88878 5.77339 3.96515 5.5955 4.02683 5.47508C4.08557 5.35467 4.21187 5.14394 4.30585 5.00984C4.41453 4.85384 4.59663 4.65133 4.80517 4.45976C5.00489 4.27366 5.22812 4.09577 5.38085 4.00272C5.5189 3.92062 5.71568 3.81389 5.82142 3.76463C5.92716 3.71536 6.14451 3.63326 6.30605 3.584C6.46759 3.53474 6.7055 3.47453 6.83474 3.45264C6.96397 3.43074 7.26062 3.41159 7.49559 3.41159ZM6.59976 4.83195C6.47053 4.87848 6.2708 4.97426 6.15919 5.04542C6.04758 5.11383 5.88898 5.22604 5.80967 5.29446C5.73037 5.36288 5.60995 5.48877 5.54239 5.57087C5.47484 5.65297 5.37204 5.80075 5.31329 5.89928C5.25749 5.9978 5.17525 6.18116 5.13119 6.30979C5.06658 6.49315 5.04895 6.6163 5.03427 6.8845C5.02545 7.13628 5.03427 7.28406 5.06658 7.44553C5.09301 7.56595 5.14882 7.74383 5.18994 7.84236C5.23106 7.94088 5.31623 8.09961 5.37791 8.19813C5.43959 8.29665 5.56883 8.45538 5.66282 8.55117C5.75974 8.64695 5.90954 8.77832 5.99765 8.84126C6.08576 8.90421 6.24437 8.99999 6.35011 9.05473C6.45584 9.10672 6.65263 9.18335 6.79068 9.2244C6.99334 9.28461 7.11377 9.30103 7.42217 9.31198C7.69532 9.32293 7.86274 9.31472 8.00959 9.28461C8.12414 9.26272 8.32093 9.20525 8.45017 9.15872C8.5794 9.1122 8.77032 9.02189 8.87605 8.95894C8.98179 8.89326 9.15214 8.76737 9.25494 8.67706C9.35774 8.58675 9.51635 8.40886 9.60446 8.28023C9.69552 8.15161 9.81006 7.95456 9.85412 7.84236C9.90112 7.73015 9.95692 7.54679 9.98042 7.43732C10.0039 7.33059 10.0215 7.12807 10.0215 6.99397C10.0215 6.85987 10.0039 6.65735 9.98042 6.54788C9.95986 6.44115 9.89818 6.25231 9.84531 6.1319C9.79538 6.01148 9.68377 5.81444 9.59565 5.69402C9.51048 5.57361 9.35774 5.40119 9.25494 5.31088C9.15214 5.22057 8.9671 5.0892 8.84668 5.01805C8.72626 4.94689 8.53534 4.85658 8.4208 4.81827C8.30625 4.77722 8.11827 4.72795 8.00078 4.70606C7.88623 4.68417 7.66007 4.66775 7.50147 4.67048C7.3458 4.67048 7.13139 4.68964 7.02565 4.7088C6.91991 4.72796 6.729 4.78269 6.59976 4.83195Z" fill="white"/>
</svg>
