<svg width="50" height="50" viewBox="0 0 50 50" fill="none" xmlns="http://www.w3.org/2000/svg">
<path d="M23.1405 0.225818C22.74 0.343025 22.1638 0.548139 21.8707 0.684881C21.5777 0.821623 21.0698 1.11464 20.7475 1.32952C20.4252 1.55417 19.9173 1.98393 19.6048 2.30625C19.302 2.61881 18.882 3.13647 18.6769 3.4588C18.4718 3.78112 18.1788 4.33785 18.0323 4.70901C17.8858 5.0704 17.7002 5.77365 17.6123 6.26201C17.5048 6.87735 17.4755 7.42432 17.5146 7.95176C17.5439 8.38152 17.6709 9.06523 17.7783 9.46569C17.8858 9.86615 18.1104 10.462 18.2667 10.7843C18.423 11.1066 18.7746 11.6633 19.0383 12.0247C19.3118 12.3959 19.8197 12.9331 20.181 13.2261C20.5522 13.5289 21.1773 13.9391 21.5777 14.154C21.9782 14.3591 22.6619 14.6326 23.0916 14.74C23.6777 14.9061 24.1562 14.9549 24.9962 14.9549C25.8362 14.9549 26.3148 14.9061 26.9008 14.74C27.3306 14.6326 28.0142 14.3591 28.4147 14.154C28.8152 13.9391 29.4109 13.5582 29.7333 13.3042C30.0458 13.0503 30.5244 12.5717 30.7783 12.2494C31.0421 11.927 31.423 11.3312 31.6378 10.9308C31.843 10.5303 32.1164 9.84661 32.2336 9.41685C32.3997 8.81128 32.4583 8.38152 32.4583 7.51223C32.4583 6.73084 32.3997 6.17411 32.2825 5.70528C32.1848 5.32435 31.9797 4.75785 31.843 4.43553C31.6964 4.1132 31.4327 3.62484 31.2472 3.36112C31.0616 3.08764 30.6709 2.61881 30.3779 2.29649C30.0751 1.98393 29.5868 1.56394 29.2937 1.35882C29.0007 1.16348 28.5319 0.880227 28.2682 0.743485C27.9947 0.606742 27.3696 0.382094 26.8715 0.245352C26.139 0.0402388 25.7776 -0.00859773 24.9278 0.00116957C24.1562 0.0109369 23.6777 0.0695407 23.1405 0.225818ZM23.0916 17.5335C22.7693 17.553 21.9391 17.6409 21.2359 17.7191C20.5326 17.807 19.4387 17.9828 18.7941 18.1098C18.1495 18.2367 17.1142 18.5102 16.4988 18.6958C15.8835 18.8911 14.8482 19.3111 14.2036 19.6237C13.5589 19.946 12.6994 20.4637 12.299 20.7762C11.8985 21.0888 11.3418 21.6553 11.0586 22.0264C10.7753 22.3976 10.453 22.9446 10.3456 23.2376C10.2284 23.5306 10.0916 24.1069 10.0428 24.5073C9.99394 24.9078 9.96464 26.8613 9.97441 28.8538L10.0037 32.4677L22.4568 32.5165V35.4956L13.5199 37.9862C12.758 37.1267 12.2794 36.6969 11.9571 36.4625C11.6348 36.2379 11.039 35.896 10.6386 35.7104C10.2381 35.5249 9.59349 35.2904 9.22234 35.2025C8.75352 35.0853 8.17726 35.0267 7.41543 35.0365C6.59499 35.0365 6.07734 35.0951 5.51084 35.2514C5.08109 35.3588 4.39739 35.6323 3.99694 35.8374C3.59649 36.0523 3.0007 36.4332 2.67838 36.6872C2.36584 36.9411 1.88725 37.4197 1.62354 37.742C1.36959 38.0644 0.978907 38.6797 0.773798 39.1095C0.568689 39.5392 0.324511 40.1546 0.236608 40.4769C0.148704 40.7992 0.0510325 41.5904 0.0217312 42.235C-0.0271043 43.2996 -0.0075701 43.495 0.22684 44.3838C0.373347 44.921 0.676127 45.7122 0.900771 46.1419C1.20355 46.728 1.5161 47.1382 2.19003 47.8024C2.85419 48.4763 3.25464 48.7889 3.85044 49.0916C4.28019 49.3163 5.04202 49.6093 5.53038 49.7461C6.24338 49.9414 6.66336 50 7.46426 50C8.17726 50 8.72422 49.9414 9.24188 49.8047C9.66186 49.6972 10.3944 49.414 10.8828 49.1698C11.3711 48.9354 12.006 48.5447 12.299 48.3005C12.592 48.0563 13.0413 47.5972 13.305 47.2945C13.5589 46.9819 13.9399 46.3959 14.1547 45.9954C14.3598 45.5949 14.6236 44.9112 14.7408 44.4815C14.8482 44.0517 14.9361 43.5536 14.9361 43.3875C14.9361 43.2117 14.9654 43.0457 15.0045 43.0261C15.0533 42.9968 17.3193 42.3717 20.0638 41.6197L25.0451 40.2425C32.6927 42.362 34.9391 43.0261 34.9782 43.0945C35.0173 43.1629 35.0563 43.3192 35.0563 43.4559C35.0563 43.5927 35.1442 44.0517 35.2517 44.4815C35.3689 44.9112 35.6326 45.5949 35.8377 45.9954C36.0526 46.3959 36.4335 46.9917 36.6972 47.314C36.9609 47.6363 37.4493 48.1149 37.8009 48.3786C38.1427 48.6423 38.7776 49.0233 39.2074 49.2284C39.6371 49.4335 40.3306 49.6874 40.7408 49.8047C41.278 49.9414 41.8054 50 42.5282 50C43.3291 50 43.7491 49.9414 44.4523 49.7461C44.9504 49.6093 45.7122 49.3163 46.142 49.0916C46.728 48.7791 47.148 48.4568 47.8024 47.8024C48.4568 47.1479 48.7889 46.7182 49.0917 46.1419C49.3261 45.6926 49.6093 44.9503 49.7558 44.3838C49.9316 43.6806 50 43.1531 50 42.4987C50 41.9322 49.9219 41.2876 49.7949 40.7504C49.6875 40.2718 49.4237 39.5392 49.2089 39.1095C49.0038 38.6797 48.6033 38.0448 48.3103 37.6932C48.027 37.3416 47.5289 36.8532 47.2164 36.609C46.8941 36.3551 46.3276 36.0035 45.9467 35.8081C45.5657 35.6225 45.0188 35.3979 44.7258 35.31C44.4328 35.2221 43.8174 35.1049 43.3584 35.056C42.8505 34.9974 42.2254 34.9974 41.7468 35.0463C41.317 35.0951 40.5943 35.2611 40.1352 35.4076C39.6762 35.5639 39.0022 35.8862 38.6213 36.1402C38.2404 36.3844 37.7228 36.8044 37.459 37.0681C37.1953 37.3318 36.873 37.703 36.746 37.8885L36.5214 38.2304C33.5327 37.4197 31.5206 36.863 30.1239 36.4723L27.5845 35.769L27.5357 32.5165L39.9887 32.4677C39.9887 24.2143 39.979 24.1557 39.7543 23.5306C39.6273 23.179 39.3734 22.6515 39.1781 22.3585C38.9925 22.0655 38.592 21.5869 38.2892 21.2939C37.9865 21.0009 37.459 20.5711 37.1074 20.3465C36.7558 20.1218 36.1502 19.78 35.7596 19.5846C35.3786 19.3893 34.5582 19.0669 33.9527 18.8521C33.3569 18.647 32.3313 18.3539 31.6867 18.2074C31.0421 18.0609 29.8798 17.8656 29.0984 17.7581C28.278 17.6507 26.8422 17.5628 25.6799 17.5335C24.5762 17.5139 23.4139 17.5139 23.0916 17.5335Z" fill="black"/>
</svg>
