<svg width="14" height="11" viewBox="0 0 14 11" fill="none" xmlns="http://www.w3.org/2000/svg">
<path d="M0.0421875 1.946C0.0685547 1.90015 0.105469 1.84858 0.129199 1.83425C0.15293 1.81706 0.218848 1.80274 0.276855 1.80274C0.348047 1.80274 0.408691 1.82279 0.461426 1.86577C0.50625 1.90302 1.21553 2.55628 2.04346 3.31842C2.87139 4.08343 3.88389 5.02321 4.29785 5.41001C4.71182 5.79681 5.23389 6.28676 5.45801 6.50165C5.68213 6.71654 5.93262 6.94862 6.01172 7.02025C6.09082 7.08901 6.22266 7.17783 6.30176 7.21508C6.38086 7.25233 6.51533 7.29244 6.59971 7.30677C6.69199 7.32396 6.81328 7.32109 6.91611 7.3039C7.00576 7.28671 7.15078 7.238 7.23779 7.19216C7.3248 7.14918 7.5041 7.00879 7.63594 6.88559C7.76777 6.75952 8.21338 6.3412 8.62471 5.9544C9.03604 5.56473 10.1909 4.49029 11.1929 3.56483C12.1948 2.63937 13.0359 1.86291 13.0649 1.84285C13.0939 1.81993 13.1625 1.80274 13.2152 1.80274C13.2706 1.80274 13.3392 1.8142 13.3682 1.83139C13.3972 1.84858 13.4394 1.90015 13.4604 1.946C13.4947 2.02049 13.5 2.52477 13.5 5.93434C13.5 8.52161 13.4921 9.89404 13.4736 9.99718C13.4578 10.0831 13.4156 10.2235 13.3813 10.3066C13.3444 10.3868 13.2521 10.5272 13.1783 10.6161C13.0939 10.7135 12.9779 10.808 12.8804 10.8596C12.7934 10.9054 12.6562 10.9542 12.5771 10.9713C12.4822 10.9914 10.4836 11 6.75 11C3.01641 11 1.01777 10.9914 0.922852 10.9713C0.84375 10.9542 0.706641 10.9054 0.619629 10.8596C0.52207 10.808 0.406055 10.7135 0.324316 10.6161C0.247852 10.5272 0.155566 10.3868 0.118652 10.3066C0.084375 10.2235 0.0421875 10.0831 0.0263672 9.99718C0.00791016 9.89404 0 8.52161 0 5.93721C0 2.36431 0.00263672 2.02336 0.0421875 1.946Z" fill="white"/>
<path d="M0.614355 0.135196C0.675 0.100813 0.785742 0.0578356 0.856934 0.0377792C0.959766 0.00912733 2.25967 0.00339695 6.72891 0.000531754C10.8896 -0.00233344 12.5086 0.00626214 12.6114 0.0291837C12.6853 0.0463748 12.8039 0.0922179 12.8751 0.129465C12.9437 0.166713 13.0544 0.252669 13.1203 0.321433C13.1889 0.387333 13.2601 0.476153 13.2785 0.521996C13.2996 0.564974 13.3154 0.625143 13.3154 0.65666C13.3154 0.688178 13.2996 0.748347 13.2838 0.788459C13.2653 0.828572 12.6747 1.39301 11.9707 2.04055C11.2667 2.69095 10.1514 3.72241 9.49219 4.33557C8.83301 4.95158 8.06045 5.67361 7.77832 5.94294C7.49619 6.2094 7.21143 6.47873 7.14551 6.5389C7.07695 6.60193 6.96885 6.66497 6.88711 6.69075C6.76846 6.72513 6.73154 6.72513 6.61289 6.69075C6.4916 6.65351 6.40195 6.58188 5.93262 6.13777C5.63467 5.85698 4.80937 5.08338 4.1001 4.42439C3.38818 3.76253 2.2333 2.69095 1.5293 2.04055C0.825293 1.39301 0.234668 0.828572 0.218848 0.788459C0.200391 0.748347 0.18457 0.688178 0.18457 0.65666C0.18457 0.625143 0.200391 0.564974 0.221484 0.521996C0.239941 0.476153 0.311133 0.387333 0.379687 0.321433C0.445605 0.252669 0.551074 0.169578 0.614355 0.135196Z" fill="white"/>
</svg>
