<svg width="50" height="50" viewBox="0 0 50 50" fill="none" xmlns="http://www.w3.org/2000/svg">
<path fill-rule="evenodd" clip-rule="evenodd" d="M3.17383 0.00213852H24.9512C44.541 -0.00762859 46.7773 0.0119056 47.168 0.148645C47.4121 0.236549 47.7441 0.373289 47.9004 0.451426C48.0566 0.53933 48.3691 0.744439 48.584 0.920247C48.7988 1.09606 49.0918 1.4086 49.248 1.61371C49.3945 1.81882 49.6191 2.28764 50 3.31319V24.9278C50 46.1713 50 46.5424 49.8145 47.1675C49.707 47.5192 49.4531 48.0466 49.248 48.3396C49.0234 48.6619 48.6426 49.0331 48.291 49.2675C47.9688 49.4921 47.4707 49.7363 47.1875 49.834C46.7188 49.9902 45.1855 50 3.22266 50L2.50977 49.707C2.12891 49.5409 1.63086 49.2577 1.41602 49.0819C1.20117 48.9061 0.908203 48.5838 0.751953 48.3787C0.605469 48.1735 0.380859 47.7047 0 46.6792V25.0646C0 3.82108 0 3.44993 0.185547 2.82483C0.292969 2.47322 0.527344 1.9751 0.703125 1.71138C0.878906 1.44767 1.20117 1.08629 1.41602 0.91048C1.63086 0.724905 2.10938 0.451426 2.49023 0.295152L3.17383 0.00213852ZM22.6562 12.0645C22.1973 12.1427 21.5137 12.3282 21.1426 12.465C20.7617 12.6017 20.1953 12.8459 19.873 13.0022C19.5508 13.1682 18.9648 13.5198 18.5645 13.7933C18.1738 14.0766 17.5098 14.6528 17.0996 15.0826C16.6895 15.5123 16.2012 16.0983 16.0059 16.4011C15.8105 16.6941 15.4883 17.2606 15.2832 17.6708C15.0781 18.0713 14.7754 18.8429 14.5898 19.3801C14.4141 19.9173 14.1992 20.6791 14.1211 21.0893C14.043 21.4898 13.9258 22.3493 13.8574 22.9939C13.7891 23.6972 13.7695 24.8204 13.7988 25.8264C13.8281 26.7347 13.9258 27.8775 14.0137 28.3658C14.0918 28.8444 14.3164 29.7235 14.502 30.3193C14.6875 30.9053 15.0195 31.7648 15.2441 32.2239C15.459 32.6731 15.8594 33.3568 16.1133 33.7378C16.377 34.1089 16.9336 34.7535 17.3535 35.154C17.7734 35.5642 18.3789 36.0721 18.7012 36.287C19.0234 36.5116 19.5605 36.8242 19.8926 36.9902C20.2344 37.1562 20.8496 37.4102 21.2598 37.5567C21.6797 37.6934 22.3242 37.8692 22.7051 37.9376C23.0762 38.006 23.8086 38.1037 24.3164 38.133C24.8633 38.172 25.6836 38.1525 26.3184 38.0841C26.9043 38.0158 27.7637 37.8595 28.2227 37.7227C28.6816 37.586 29.4531 37.293 29.9316 37.0683C30.4102 36.8437 31.0254 36.5018 31.2988 36.3163C31.5625 36.1307 32.1094 35.6716 32.5098 35.3005C32.9102 34.9196 33.4473 34.3238 33.7109 33.9819C33.9746 33.6303 34.3848 32.9662 34.6191 32.5169C34.8535 32.0578 35.1953 31.2178 35.3906 30.6611C35.5762 30.0946 35.8008 29.284 35.8887 28.8542C35.9766 28.4244 36.0938 27.5845 36.1523 26.9984C36.2012 26.4027 36.2305 25.1525 36.2012 24.2148C36.1719 23.2674 36.0742 22.1247 35.9961 21.6754C35.918 21.2163 35.7422 20.4642 35.6055 20.015C35.4785 19.5559 35.1953 18.7843 35 18.3057C34.7949 17.8174 34.3652 17.0262 34.0527 16.5476C33.7305 16.0593 33.1152 15.3072 32.6758 14.8775C32.2461 14.4477 31.5527 13.8812 31.1523 13.6175C30.752 13.344 30.0391 12.9631 29.5605 12.758C29.0918 12.5626 28.3691 12.3087 27.9492 12.2013C27.5391 12.0938 26.8262 11.9669 26.3672 11.9083C25.9082 11.8496 25.2344 11.8106 24.8535 11.8203C24.4727 11.8301 24.0137 11.8496 23.8281 11.879C23.6426 11.8985 23.1152 11.9766 22.6562 12.0645ZM24.9707 16.7039C25.5371 16.6941 25.9668 16.7527 26.3867 16.8797C26.7285 16.9872 27.2168 17.2313 27.4902 17.4169C27.7539 17.6025 28.1445 17.9639 28.3398 18.2276C28.5352 18.4815 28.8281 18.9601 28.9844 19.2824C29.1504 19.6047 29.375 20.1908 29.4824 20.601C29.5898 21.0014 29.7168 21.6558 29.7754 22.0661C29.8242 22.4665 29.8926 23.3455 29.9219 24.0195C29.9512 24.6836 29.9414 25.8557 29.8926 26.6078C29.8438 27.3598 29.7266 28.3268 29.6387 28.7565C29.5508 29.1863 29.3555 29.8309 29.2188 30.2021C29.0723 30.5634 28.7598 31.1592 28.5156 31.5109C28.2227 31.9406 27.8711 32.2922 27.4609 32.5755C27.1289 32.8099 26.6016 33.0736 26.2891 33.1615C25.8789 33.2787 25.4785 33.308 24.7559 33.2787C24.0234 33.2396 23.6523 33.1713 23.291 33.015C23.0176 32.888 22.5879 32.6341 22.3242 32.429C22.0605 32.2336 21.6602 31.7843 21.4355 31.4425C21.2109 31.0909 20.9277 30.5634 20.8105 30.2704C20.6836 29.9676 20.498 29.3328 20.3906 28.8542C20.293 28.3658 20.1562 27.2719 20.1074 26.4124C20.0488 25.5529 20.0293 24.3418 20.0684 23.7265C20.0977 23.1014 20.1855 22.2028 20.2637 21.7242C20.3418 21.2358 20.4785 20.601 20.5664 20.308C20.6543 20.0052 20.8789 19.4582 21.0742 19.0871C21.2598 18.7062 21.6016 18.1983 21.8262 17.9639C22.0508 17.7197 22.5 17.3778 22.8125 17.2118C23.1348 17.036 23.5645 16.8504 23.7793 16.8016C23.9941 16.7527 24.5312 16.7039 24.9707 16.7039Z" fill="black"/>
</svg>
