<svg width="14" height="14" viewBox="0 0 14 14" fill="none" xmlns="http://www.w3.org/2000/svg">
<path d="M2.27939 0.224267C1.79758 0.345138 1.32291 0.483784 1.22655 0.533554C1.12662 0.583324 0.962445 0.689975 0.858945 0.771741C0.759014 0.849952 0.601979 1.01704 0.516324 1.14146C0.427099 1.26233 0.309323 1.46497 0.25222 1.59295C0.191547 1.72093 0.120168 1.92001 0.0844785 2.03733C0.0523578 2.15465 0.0166681 2.45682 0.00596117 2.71279C-0.00831471 3.06473 0.00239228 3.2496 0.0452199 3.49489C0.0809096 3.66909 0.14872 3.93572 0.198685 4.08147C0.248651 4.22723 0.419962 4.62184 0.584134 4.95245C0.744738 5.28307 1.0017 5.77366 1.15517 6.03674C1.30507 6.29981 1.56917 6.72286 1.73691 6.97882C1.90108 7.23123 2.19374 7.65072 2.38646 7.90313C2.57562 8.15553 2.83258 8.48615 2.95393 8.63191C3.07884 8.77766 3.38221 9.11895 3.62846 9.38913C3.87829 9.65931 4.30657 10.0859 4.58138 10.3383C4.85619 10.5907 5.2345 10.9178 5.42009 11.0707C5.60567 11.22 5.93402 11.4759 6.15173 11.6359C6.36943 11.7959 6.75131 12.0661 7.00828 12.2296C7.26168 12.3967 7.68995 12.6598 7.95406 12.8091C8.21816 12.9619 8.70711 13.2179 9.04259 13.3779C9.37807 13.5414 9.77066 13.712 9.91699 13.7618C10.0633 13.8116 10.3702 13.8862 10.5951 13.9253C10.8199 13.968 11.0698 14 11.1483 14C11.2268 14 11.4267 13.9751 11.5944 13.9467C11.7621 13.9147 11.962 13.8756 12.0405 13.8542C12.119 13.8329 12.2868 13.7689 12.4153 13.7085C12.5437 13.6516 12.7436 13.5343 12.8614 13.4525C12.9792 13.3708 13.154 13.2072 13.2468 13.0899C13.3432 12.9762 13.4574 12.7984 13.5038 12.7024C13.5502 12.6029 13.668 12.1798 13.7715 11.7603C13.8714 11.3408 13.9678 10.9142 13.9856 10.8182C14.007 10.7116 14.0035 10.5516 13.982 10.4094C13.9606 10.2814 13.9142 10.1072 13.875 10.0184C13.8357 9.92949 13.7358 9.77307 13.6537 9.66642C13.5716 9.56332 13.4146 9.41757 13.3075 9.34647C13.2004 9.27537 12.9899 9.16872 12.8435 9.11184C12.6972 9.05496 12.4081 8.94119 12.2011 8.85943C11.9941 8.77766 11.6908 8.65324 11.523 8.58214C11.3553 8.51459 11.1233 8.44705 11.0055 8.43283C10.8877 8.42216 10.6879 8.42927 10.5594 8.4506C10.4309 8.47193 10.2418 8.52881 10.1383 8.57858C10.0383 8.62835 9.87059 8.74211 9.77066 8.83454C9.66002 8.93764 9.49942 9.1545 9.36737 9.37135C9.20676 9.64153 9.13538 9.73397 9.09613 9.71619C9.06757 9.70197 8.87485 9.57754 8.66785 9.44245C8.46085 9.30381 8.16462 9.09406 8.00759 8.97319C7.85055 8.85587 7.62571 8.68168 7.50793 8.58569C7.39016 8.48971 7.0975 8.23019 6.85481 8.01333C6.61212 7.79648 6.26593 7.45875 6.08748 7.26678C5.90547 7.07125 5.65564 6.7904 5.53073 6.64465C5.40581 6.49534 5.1881 6.2216 5.04535 6.03674C4.90616 5.85188 4.67417 5.53192 4.53855 5.32573C4.39936 5.11954 4.27445 4.92757 4.26017 4.89913C4.2459 4.86002 4.33512 4.78892 4.60636 4.62895C4.82407 4.49741 5.04178 4.33743 5.14528 4.22723C5.23807 4.12769 5.35585 3.95349 5.40938 3.84329C5.45935 3.72952 5.52002 3.534 5.53786 3.40602C5.56285 3.2496 5.56285 3.10028 5.53786 2.94386C5.51645 2.81588 5.42366 2.53859 5.33086 2.32173C5.23807 2.10843 5.0739 1.70671 4.96683 1.43298C4.86333 1.15924 4.73841 0.871282 4.69202 0.793071C4.64562 0.714861 4.53141 0.572659 4.43505 0.476674C4.33869 0.380688 4.19593 0.266927 4.11741 0.220712C4.0389 0.174496 3.87115 0.103396 3.74267 0.0642905C3.61419 0.0251852 3.43217 -0.00325501 3.33224 0.000300016C3.23588 0.000300016 2.76121 0.103396 2.27939 0.224267Z" fill="white"/>
</svg>
