<svg width="20" height="15" viewBox="0 0 20 15" fill="none" xmlns="http://www.w3.org/2000/svg">
<path d="M13.1103 0.0808627C12.893 0.125786 12.6264 0.184187 12.5178 0.220126C12.4091 0.251572 12.1869 0.336927 12.024 0.413298C11.861 0.485175 11.6289 0.606469 11.5055 0.682839C11.382 0.75921 11.1401 0.943396 10.9672 1.09164C10.7944 1.24438 10.5623 1.48697 10.4537 1.63522C10.3451 1.78347 10.1772 2.04852 10.0883 2.21923C9.9994 2.38994 9.88089 2.69542 9.82163 2.89308C9.75744 3.13118 9.71793 3.4097 9.71299 3.72417C9.70806 3.98473 9.72287 4.2947 9.74756 4.42049L9.78706 4.6451C9.07106 4.59569 8.66121 4.55076 8.41924 4.51033C8.17728 4.47439 7.74274 4.38904 7.45634 4.32615C7.16994 4.25876 6.68108 4.12399 6.36999 4.01617C6.05889 3.91285 5.58979 3.73315 5.33301 3.62084C5.07624 3.50854 4.63182 3.28841 4.34542 3.13118C4.05901 2.97394 3.60472 2.69542 3.33313 2.51123C3.06154 2.32704 2.48874 1.85984 2.05913 1.469C1.34807 0.822103 1.27894 0.763702 1.21474 0.835579C1.17524 0.880503 1.08635 1.05121 1.01722 1.21743C0.948091 1.38814 0.854269 1.63971 0.814766 1.77898C0.775262 1.92273 0.725882 2.19227 0.711068 2.37646C0.691316 2.56963 0.701192 2.87511 0.740696 3.09524C0.770324 3.30638 0.854269 3.62084 0.923401 3.79155C0.992533 3.96226 1.12092 4.22731 1.2098 4.37556C1.29869 4.52381 1.50114 4.79784 1.6641 4.98203C1.82211 5.16622 2.08383 5.4133 2.2369 5.5301C2.51343 5.74124 2.51837 5.74573 2.37023 5.74573C2.28628 5.74573 2.04926 5.71429 1.84186 5.67385C1.62953 5.63792 1.28387 5.53459 1.07648 5.44924L0.691316 5.2965C0.691316 5.64241 0.725882 5.90297 0.770324 6.09164C0.814766 6.28482 0.913525 6.5858 0.992533 6.75651C1.0666 6.92722 1.22462 7.20126 1.33819 7.36298C1.45176 7.52471 1.67891 7.78526 1.8468 7.9425C2.01469 8.09973 2.28134 8.31536 2.4443 8.41869C2.60725 8.5265 2.90847 8.68374 3.11092 8.76909C3.31338 8.85445 3.55534 8.9398 3.64422 8.95328C3.72817 8.96676 3.81212 8.9982 3.82693 9.02516C3.84174 9.05211 3.76767 9.08356 3.66891 9.10153C3.56522 9.12399 3.17512 9.13747 2.80477 9.13747C2.14802 9.13747 2.12333 9.14196 2.15296 9.22731C2.16777 9.27673 2.28134 9.48787 2.39986 9.69901C2.5233 9.91015 2.72576 10.1932 2.85415 10.3324C2.98254 10.4672 3.22943 10.6963 3.4072 10.8356C3.58497 10.9793 3.91581 11.1815 4.1479 11.2893C4.37998 11.3971 4.6812 11.5184 4.81452 11.5588C4.95279 11.5993 5.25894 11.6577 5.5009 11.6891L5.94532 11.743C5.6441 11.9587 5.40708 12.1069 5.22438 12.2102C5.03673 12.3091 4.70589 12.4798 4.48368 12.5786C4.25653 12.6819 3.81705 12.8437 3.50596 12.938C3.19487 13.0323 2.76527 13.1402 2.55787 13.1761C2.34554 13.2165 1.94556 13.2704 1.66904 13.2974C1.38757 13.3243 0.898711 13.3423 0.577743 13.3333C0.261712 13.3243 0 13.3288 0 13.3468C0 13.3693 0.0938215 13.4367 0.212333 13.504C0.325906 13.5669 0.651812 13.7287 0.938215 13.8589C1.22462 13.9892 1.62459 14.1509 1.82705 14.2273C2.02951 14.2992 2.37517 14.4115 2.59244 14.4744C2.80971 14.5418 3.21956 14.6451 3.50596 14.708C3.79236 14.7664 4.33554 14.8607 4.71576 14.9102C5.19475 14.973 5.66386 15 6.26135 15C6.72552 15 7.27364 14.9775 7.47115 14.9506C7.66374 14.9281 8.10321 14.8652 8.44393 14.8113C8.78465 14.7619 9.31796 14.6541 9.62905 14.5687C9.94014 14.4879 10.4537 14.3261 10.7648 14.2138C11.0759 14.1015 11.545 13.9039 11.8018 13.7781C12.0585 13.6523 12.4931 13.4142 12.7647 13.248C13.0363 13.0818 13.4609 12.7942 13.7029 12.6101C13.9448 12.4214 14.3498 12.08 14.5917 11.8509C14.8386 11.6173 15.1645 11.2893 15.3127 11.1141C15.4657 10.9389 15.7472 10.5885 15.9348 10.3279C16.1274 10.0674 16.3941 9.66307 16.5323 9.42947C16.6706 9.19587 16.8829 8.79155 17.0014 8.531C17.12 8.27044 17.3027 7.8257 17.4014 7.54268C17.5051 7.25966 17.6384 6.81491 17.7026 6.55436C17.7668 6.2938 17.8557 5.83558 17.8952 5.5301C17.9397 5.22911 17.9742 4.71249 17.9742 4.38455L17.9693 3.79155C18.4137 3.48158 18.7445 3.20755 18.9914 2.98742C19.2334 2.7628 19.5692 2.42138 19.7321 2.22821C19.8902 2.03953 20.0136 1.86882 19.9988 1.85984C19.984 1.84636 19.7865 1.90027 19.5544 1.97664C19.3223 2.05301 18.9223 2.16083 18.6655 2.21923C18.4088 2.27763 18.1125 2.33603 18.0137 2.34951C17.91 2.36298 17.8261 2.36298 17.8261 2.34052C17.831 2.32255 17.9792 2.20575 18.1569 2.08446C18.3396 1.95867 18.6211 1.7071 18.7791 1.52291C18.9421 1.33872 19.1593 1.02426 19.268 0.826595C19.3717 0.628931 19.4556 0.440251 19.4556 0.408805C19.4556 0.381851 19.4507 0.354897 19.4457 0.354897C19.4359 0.354897 19.1742 0.462714 18.8631 0.597484C18.552 0.732255 18.0829 0.902965 17.8261 0.979335C17.5693 1.05571 17.2533 1.13657 17.1249 1.16352L16.8879 1.20845C16.4879 0.884996 16.2459 0.718778 16.0978 0.633423C15.9497 0.543576 15.683 0.413297 15.5052 0.34142C15.3275 0.269542 14.9522 0.161725 14.6658 0.103324C14.3794 0.0449238 14.0041 0 13.8263 0C13.6486 0.00449236 13.3276 0.0404314 13.1103 0.0808627Z" fill="white"/>
</svg>
