<svg width="20" height="16" viewBox="0 0 20 16" fill="none" xmlns="http://www.w3.org/2000/svg">
<path d="M13.1103 0.0862535C12.893 0.134172 12.6264 0.196466 12.5178 0.234801C12.4091 0.268344 12.1869 0.359389 12.024 0.440851C11.861 0.51752 11.6289 0.646901 11.5055 0.728362C11.382 0.809824 11.1401 1.00629 10.9672 1.16442C10.7944 1.32734 10.5623 1.5861 10.4537 1.74423C10.3451 1.90237 10.1772 2.18509 10.0883 2.36718C9.9994 2.54927 9.88088 2.87511 9.82163 3.08595C9.75744 3.33992 9.71793 3.63702 9.71299 3.97245C9.70806 4.25037 9.72287 4.58101 9.74756 4.71518L9.78706 4.95478C9.07106 4.90207 8.66121 4.85415 8.41925 4.81102C8.17728 4.77269 7.74274 4.68164 7.45634 4.61456C7.16994 4.54268 6.68108 4.39892 6.36999 4.28392C6.05889 4.1737 5.58979 3.98203 5.33301 3.86223C5.07624 3.74244 4.63182 3.50764 4.34542 3.33992C4.05901 3.17221 3.60472 2.87511 3.33313 2.67865C3.06154 2.48218 2.48874 1.98383 2.05913 1.56694C1.34807 0.87691 1.27894 0.814615 1.21474 0.891285C1.17524 0.939203 1.08635 1.12129 1.01722 1.29859C0.948091 1.48068 0.854269 1.74903 0.814766 1.89757C0.775262 2.05091 0.725882 2.33842 0.711068 2.53489C0.691316 2.74094 0.701192 3.06679 0.740696 3.30159C0.770324 3.5268 0.854269 3.86223 0.923401 4.04432C0.992533 4.22642 1.12092 4.50913 1.2098 4.66727C1.29869 4.8254 1.50114 5.1177 1.6641 5.31417C1.82211 5.51063 2.08383 5.77418 2.2369 5.89877C2.51343 6.12399 2.51837 6.12878 2.37023 6.12878C2.28628 6.12878 2.04926 6.09524 1.84186 6.05211C1.62953 6.01378 1.28387 5.90356 1.07648 5.81252L0.691316 5.6496C0.691316 6.01857 0.725882 6.2965 0.770324 6.49775C0.814766 6.7038 0.913525 7.02486 0.992533 7.20695C1.0666 7.38904 1.22462 7.68134 1.33819 7.85385C1.45176 8.02636 1.67891 8.30428 1.8468 8.472C2.01469 8.63971 2.28134 8.86972 2.4443 8.97993C2.60725 9.09494 2.90847 9.26265 3.11092 9.3537C3.31338 9.44474 3.55534 9.53579 3.64422 9.55016C3.72817 9.56454 3.81212 9.59808 3.82693 9.62683C3.84174 9.65559 3.76767 9.68913 3.66891 9.7083C3.56522 9.73226 3.17512 9.74663 2.80477 9.74663C2.14802 9.74663 2.12333 9.75142 2.15296 9.84247C2.16777 9.89518 2.28134 10.1204 2.39986 10.3456C2.5233 10.5708 2.72576 10.8727 2.85415 11.0213C2.98254 11.165 3.22943 11.4094 3.4072 11.558C3.58497 11.7113 3.91581 11.9269 4.1479 12.0419C4.37998 12.1569 4.6812 12.2863 4.81452 12.3294C4.95279 12.3726 5.25894 12.4349 5.5009 12.4684L5.94532 12.5259C5.6441 12.7559 5.40708 12.914 5.22438 13.0243C5.03673 13.1297 4.70589 13.3118 4.48368 13.4172C4.25653 13.5274 3.81705 13.6999 3.50596 13.8005C3.19487 13.9012 2.76527 14.0162 2.55787 14.0545C2.34554 14.0976 1.94556 14.1551 1.66904 14.1839C1.38757 14.2126 0.898711 14.2318 0.577743 14.2222C0.261712 14.2126 0 14.2174 0 14.2366C0 14.2606 0.0938215 14.3324 0.212333 14.4043C0.325906 14.4714 0.651813 14.6439 0.938215 14.7829C1.22462 14.9218 1.62459 15.0943 1.82705 15.1758C2.02951 15.2525 2.37517 15.3723 2.59244 15.4394C2.80971 15.5112 3.21956 15.6214 3.50596 15.6885C3.79236 15.7508 4.33554 15.8515 4.71576 15.9042C5.19475 15.9712 5.66386 16 6.26135 16C6.72552 16 7.27364 15.976 7.47115 15.9473C7.66374 15.9233 8.10321 15.8562 8.44393 15.7987C8.78466 15.746 9.31796 15.631 9.62905 15.54C9.94014 15.4537 10.4537 15.2812 10.7648 15.1614C11.0759 15.0416 11.545 14.8308 11.8018 14.6966C12.0585 14.5624 12.4931 14.3085 12.7647 14.1312C13.0363 13.9539 13.4609 13.6472 13.7029 13.4507C13.9448 13.2495 14.3498 12.8853 14.5917 12.6409C14.8386 12.3917 15.1645 12.0419 15.3127 11.855C15.4657 11.6682 15.7472 11.2944 15.9348 11.0165C16.1274 10.7385 16.3941 10.3073 16.5323 10.0581C16.6706 9.80892 16.8829 9.37766 17.0014 9.09973C17.12 8.8218 17.3027 8.34741 17.4014 8.04552C17.5051 7.74364 17.6384 7.26924 17.7026 6.99131C17.7668 6.71339 17.8557 6.22462 17.8952 5.89877C17.9397 5.57772 17.9742 5.02665 17.9742 4.67685L17.9693 4.04432C18.4137 3.71369 18.7445 3.42138 18.9914 3.18658C19.2334 2.94699 19.5692 2.58281 19.7321 2.37676C19.8902 2.1755 20.0136 1.99341 19.9988 1.98383C19.984 1.96945 19.7865 2.02695 19.5544 2.10842C19.3223 2.18988 18.9223 2.30488 18.6655 2.36718C18.4088 2.42947 18.1125 2.49176 18.0137 2.50614C17.91 2.52051 17.8261 2.52052 17.8261 2.49656C17.831 2.47739 17.9792 2.3528 18.1569 2.22342C18.3396 2.08925 18.6211 1.8209 18.7791 1.62444C18.9421 1.42797 19.1593 1.09254 19.268 0.881701C19.3717 0.67086 19.4556 0.469602 19.4556 0.436059C19.4556 0.407308 19.4507 0.378557 19.4457 0.378557C19.4359 0.378557 19.1742 0.493561 18.8631 0.637317C18.552 0.781072 18.0829 0.963163 17.8261 1.04462C17.5693 1.12609 17.2533 1.21234 17.1249 1.24109L16.8879 1.28901C16.4879 0.943995 16.2459 0.766697 16.0978 0.675651C15.9497 0.579814 15.683 0.44085 15.5052 0.364181C15.3275 0.287511 14.9522 0.172507 14.6658 0.110213C14.3794 0.0479187 14.0041 0 13.8263 0C13.6486 0.00479185 13.3276 0.0431268 13.1103 0.0862535Z" fill="#1F2937"/>
</svg>
